<svg width="498" height="485" viewBox="0 0 498 485" fill="none" xmlns="http://www.w3.org/2000/svg">
<path d="M290.939 472.995H278.04L270.562 404.094H290.495L290.939 472.995Z" fill="#ED9DA0"/>
<path d="M265.485 484.074C264.128 484.074 262.919 484.043 262.012 483.956C258.588 483.642 255.319 481.112 253.678 479.638C253.319 479.314 253.069 478.887 252.963 478.415C252.857 477.943 252.9 477.45 253.086 477.003C253.221 476.682 253.428 476.394 253.689 476.163C253.951 475.931 254.261 475.761 254.597 475.665L263.647 473.08L278.304 463.191L278.471 463.488C279.268 464.908 279.931 466.399 280.451 467.942C280.548 468.211 280.586 468.498 280.561 468.784C280.537 469.069 280.451 469.346 280.309 469.595C280.142 469.845 279.907 470.042 279.631 470.162C279.896 470.44 280.729 471.001 283.289 471.409C287.034 472.001 287.812 468.127 287.848 467.966L287.873 467.837L287.984 467.763C289.767 466.616 290.859 466.097 291.235 466.21C291.469 466.278 291.865 466.401 292.925 476.95C293.443 478.593 293.561 480.335 293.271 482.033C292.721 484.563 281.685 483.693 279.477 483.489C279.415 483.495 271.155 484.081 265.491 484.081L265.485 484.074Z" fill="#090814"/>
<path d="M257.19 472.995H244.297L236.82 404.094H256.752L257.19 472.995Z" fill="#ED9DA0"/>
<path d="M229.367 484.076C227.895 484.076 226.584 484.043 225.6 483.952C221.886 483.611 218.339 480.867 216.559 479.268C216.17 478.916 215.898 478.453 215.783 477.941C215.668 477.429 215.715 476.894 215.917 476.409C216.064 476.06 216.288 475.748 216.572 475.497C216.855 475.246 217.192 475.061 217.557 474.957L227.374 472.153L243.273 461.422L243.454 461.743C244.319 463.283 245.038 464.901 245.602 466.575C245.707 466.867 245.748 467.179 245.721 467.488C245.694 467.798 245.601 468.098 245.448 468.368C245.266 468.639 245.011 468.853 244.711 468.984C244.999 469.285 245.902 469.894 248.68 470.336C252.742 470.978 253.585 466.776 253.625 466.601L253.652 466.461L253.773 466.381C255.699 465.138 256.891 464.574 257.299 464.695C257.553 464.768 257.983 464.902 259.133 476.345C259.694 478.127 259.822 480.017 259.506 481.859C258.91 484.603 246.938 483.661 244.542 483.438C244.475 483.445 235.515 484.081 229.372 484.081L229.367 484.076Z" fill="#090814"/>
<path d="M496.88 25.9247H0.720142C0.529148 25.9247 0.345968 25.8488 0.210915 25.7137C0.075862 25.5787 0 25.3955 0 25.2045C0 25.0135 0.075862 24.8304 0.210915 24.6953C0.345968 24.5602 0.529148 24.4844 0.720142 24.4844H496.88C497.071 24.4844 497.254 24.5602 497.389 24.6953C497.524 24.8304 497.6 25.0135 497.6 25.2045C497.6 25.3955 497.524 25.5787 497.389 25.7137C497.254 25.8488 497.071 25.9247 496.88 25.9247Z" fill="#CACACA"/>
<path d="M16.9289 15.8432C21.3039 15.8432 24.8505 12.2965 24.8505 7.92158C24.8505 3.54661 21.3039 0 16.9289 0C12.5539 0 9.00732 3.54661 9.00732 7.92158C9.00732 12.2965 12.5539 15.8432 16.9289 15.8432Z" fill="#3F3D56"/>
<path d="M44.2932 15.8432C48.6681 15.8432 52.2147 12.2965 52.2147 7.92158C52.2147 3.54661 48.6681 0 44.2932 0C39.9182 0 36.3716 3.54661 36.3716 7.92158C36.3716 12.2965 39.9182 15.8432 44.2932 15.8432Z" fill="#3F3D56"/>
<path d="M71.6579 15.8432C76.0329 15.8432 79.5795 12.2965 79.5795 7.92158C79.5795 3.54661 76.0329 0 71.6579 0C67.2829 0 63.7363 3.54661 63.7363 7.92158C63.7363 12.2965 67.2829 15.8432 71.6579 15.8432Z" fill="#3F3D56"/>
<path d="M480.484 4.84542H461.04C460.658 4.84542 460.292 4.69368 460.022 4.42357C459.752 4.15346 459.6 3.78712 459.6 3.40514C459.6 3.02315 459.752 2.6568 460.022 2.38669C460.292 2.11659 460.658 1.96484 461.04 1.96484H480.484C480.866 1.96484 481.232 2.11659 481.502 2.38669C481.772 2.6568 481.924 3.02315 481.924 3.40514C481.924 3.78712 481.772 4.15346 481.502 4.42357C481.232 4.69368 480.866 4.84542 480.484 4.84542Z" fill="#3F3D56"/>
<path d="M480.484 10.2458H461.04C460.658 10.2458 460.292 10.0941 460.022 9.82396C459.752 9.55385 459.6 9.18752 459.6 8.80553C459.6 8.42354 459.752 8.05719 460.022 7.78708C460.292 7.51698 460.658 7.36523 461.04 7.36523H480.484C480.866 7.36523 481.232 7.51698 481.502 7.78708C481.772 8.05719 481.924 8.42354 481.924 8.80553C481.924 9.18752 481.772 9.55385 481.502 9.82396C481.232 10.0941 480.866 10.2458 480.484 10.2458Z" fill="#3F3D56"/>
<path d="M480.484 15.6462H461.04C460.658 15.6462 460.292 15.4945 460.022 15.2244C459.752 14.9542 459.6 14.5879 459.6 14.2059C459.6 13.8239 459.752 13.4576 460.022 13.1875C460.292 12.9174 460.658 12.7656 461.04 12.7656H480.484C480.866 12.7656 481.232 12.9174 481.502 13.1875C481.772 13.4576 481.924 13.8239 481.924 14.2059C481.924 14.5879 481.772 14.9542 481.502 15.2244C481.232 15.4945 480.866 15.6462 480.484 15.6462Z" fill="#3F3D56"/>
<path d="M469.635 58.4902H14.9473V299.39H469.635V58.4902Z" fill="#F0F0F0"/>
<path d="M469.635 103.58V101.218H381.125V58.4883H378.764V101.218H290.253V58.4883H287.892V101.218H199.381V58.4883H197.019V101.218H108.508V58.4883H106.147V101.218H14.9473V103.58H106.146V150.785H14.9473V153.146H106.146V200.352H14.9473V202.713H106.146V249.91H14.9473V252.272H106.146V299.383H108.507V252.279H197.018V299.39H199.379V252.279H287.89V299.39H290.252V252.279H378.763V299.39H381.124V252.279H469.634V249.918H381.125V202.719H469.635V200.358H381.125V153.151H469.635V150.79H381.125V103.58H469.635ZM197.018 249.914H108.508V202.719H197.018V249.914ZM197.018 200.354H108.508V153.151H197.018V200.354ZM197.018 150.786H108.508V103.58H197.018V150.786ZM287.89 249.914H199.381V202.719H287.89V249.914ZM287.89 200.355H199.381V153.151H287.89V200.355ZM287.89 150.787H199.381V103.58H287.89V150.787ZM378.763 249.915H290.253V202.719H378.763V249.915ZM378.763 200.355H290.253V153.151H378.763V200.355ZM378.763 150.787H290.253V103.583H378.763V150.787Z" fill="white"/>
<path d="M156.534 115.062H126.116V144.511H156.534V115.062Z" fill="#CACACA"/>
<path d="M436.591 210.42H406.172V239.869H436.591V210.42Z" fill="#CACACA"/>
<path d="M165.984 259.387H135.565V288.836H165.984V259.387Z" fill="#CACACA"/>
<path d="M174.975 109.6H144.556V139.048H174.975V109.6Z" fill="#F97316"/>
<path d="M317.967 232.015L354.065 199.854L364.714 205.13L321.42 250.539L317.967 232.015Z" fill="#ED9DA0"/>
<path d="M358.815 210.906C363.56 210.906 367.406 207.06 367.406 202.315C367.406 197.571 363.56 193.725 358.815 193.725C354.071 193.725 350.225 197.571 350.225 202.315C350.225 207.06 354.071 210.906 358.815 210.906Z" fill="#ED9DA0"/>
<path d="M291.352 285.759C291.352 285.759 312.829 284.162 305.954 319.291C299.079 354.419 293.638 452.163 293.638 452.163H271.943L264.318 323.978L258.55 452.163L237.196 450.514L226.063 312.904C226.063 312.904 220.903 301.84 226.063 294.201C231.224 286.563 291.352 285.759 291.352 285.759Z" fill="#090814"/>
<path d="M277.608 192.121L283.573 188.926C283.573 188.926 298.264 187.673 304.259 204.931L320.16 228.947L345.932 206.611L357.1 214.343L324.617 253.107C324.617 253.107 321.79 263.851 311.112 254.833C300.433 245.815 281.903 217.034 281.903 217.034L277.608 192.121Z" fill="#3F3D56"/>
<path d="M255.971 122.422C231.472 122.422 224.615 149.334 224.615 164.516C224.615 179.699 238.654 177.403 255.971 177.403C263.404 177.403 270.228 177.822 275.605 177.104L278.19 170.793L280.27 176.023C284.682 174.402 287.33 171.108 287.33 164.516C287.326 149.334 281.315 122.422 255.971 122.422Z" fill="#2F2E41"/>
<path d="M247.281 170.529H265.487L269.175 194.583H247.281V170.529Z" fill="#ED9DA0"/>
<path d="M255.865 177.377C267.518 177.377 276.965 167.931 276.965 156.278C276.965 144.624 267.518 135.178 255.865 135.178C244.212 135.178 234.766 144.624 234.766 156.278C234.766 167.931 244.212 177.377 255.865 177.377Z" fill="#ED9DA0"/>
<path d="M231.487 154.209H239.832L243.514 143.9L244.25 154.209H248.238L250.386 148.195L250.815 154.209H280.453C280.453 148.285 278.1 142.604 273.912 138.415C269.723 134.226 264.042 131.873 258.118 131.873H253.822C247.899 131.873 242.218 134.226 238.029 138.415C233.84 142.604 231.487 148.285 231.487 154.209Z" fill="#2F2E41"/>
<path d="M372.56 169.734H342.141V199.183H372.56V169.734Z" fill="#F97316"/>
<path d="M298.028 277.987C294.789 278.029 285.031 220.129 285.031 220.129L283.57 188.925L272.908 188.57V187.869C272.908 186.46 272.348 185.11 271.353 184.114C270.357 183.118 269.006 182.559 267.598 182.559H247.292C245.943 182.559 244.645 183.073 243.662 183.997C242.679 184.92 242.085 186.183 241.999 187.529L233.639 187.247L219.161 233.254C219.161 233.254 232.505 276.003 226.064 294.84C226.064 294.84 288.809 300.228 300.821 288.269C300.817 288.27 301.268 277.946 298.028 277.987Z" fill="#3F3D56"/>
<path d="M237.231 192.98L233.638 187.249C233.638 187.249 221.946 184.358 217.132 192.106C212.318 199.853 183.933 232.866 198.17 241.833C212.407 250.801 212.771 246.991 212.771 246.991L229.345 223.753L237.231 192.98Z" fill="#3F3D56"/>
<path d="M273.767 222.996H243.348V252.445H273.767V222.996Z" fill="#F97316"/>
<path d="M220.01 233.64L209.427 232.521C208.759 233.947 208.424 235.506 208.447 237.08C208.47 238.655 208.851 240.203 209.561 241.609C210.271 243.014 211.291 244.24 212.545 245.192C213.798 246.145 215.252 246.801 216.796 247.109L258.67 255.466L254.302 242.014L220.01 233.64Z" fill="#ED9DA0"/>
<path d="M258.796 255.621C263.54 255.621 267.387 251.775 267.387 247.03C267.387 242.286 263.54 238.439 258.796 238.439C254.051 238.439 250.205 242.286 250.205 247.03C250.205 251.775 254.051 255.621 258.796 255.621Z" fill="#ED9DA0"/>
<path d="M248.071 255.884L216.17 248.594C213.858 248.06 211.724 246.937 209.973 245.336C208.223 243.734 206.915 241.708 206.177 239.453L204.888 235.476L213.167 228.961L251.097 239.562L248.071 255.884Z" fill="#3F3D56"/>
<path d="M339.047 484.08H180.949C180.72 484.08 180.534 483.695 180.534 483.221C180.534 482.746 180.721 482.361 180.949 482.361H339.047C339.276 482.361 339.462 482.746 339.462 483.221C339.462 483.695 339.275 484.08 339.047 484.08Z" fill="#E6E6E6"/>
</svg>
